<?xml version="1.0" encoding="UTF-8"?>
<svg id="Calque_1" data-name="Calque 1" xmlns="http://www.w3.org/2000/svg" viewBox="0 0 452.05 126.2">
  <defs>
    <style>
      .cls-1 {
        fill: #afbec5;
      }

      .cls-1, .cls-2, .cls-3 {
        stroke-width: 0px;
      }

      .cls-2 {
        fill: #f49719;
      }

      .cls-3 {
        fill: #677d8b;
      }
    </style>
  </defs>
  <path class="cls-3" d="m125.92,100.66v12.84s-39.18,0-39.18,0V48.54s14.98,0,14.98,0v52.12s24.2,0,24.2,0Z"/>
  <path class="cls-3" d="m168.36,48.54v12.84s-14.15,0-14.15,0v52.12s-14.98,0-14.98,0v-52.12s-14.24,0-14.24,0v-12.84s43.37,0,43.37,0Z"/>
  <path class="cls-3" d="m178.13,48.54h36.58s8.93,8.84,8.93,8.84v21.22s-8.93,8.38-8.93,8.38l12.01,26.53h-17.31s-12.01-26.53-12.01-26.53h-4.28s0,26.53,0,26.53h-14.98s0-64.96,0-64.96Zm30.44,26.06v-13.22s-15.45,0-15.45,0v13.22s15.45,0,15.45,0Z"/>
  <path class="cls-3" d="m250.26,48.54h19.83s20.38,64.96,20.38,64.96h-15.82s-3.72-12.75-3.72-12.75h-21.5s-3.72,12.75-3.72,12.75h-15.73s20.29-64.96,20.29-64.96Zm16.75,39.37l-6.79-22.8-6.89,22.8h13.68Z"/>
  <path class="cls-3" d="m297.45,113.5V48.54s20.85,0,20.85,0l13.03,37.32v-37.32s14.89,0,14.89,0v64.96s-20.85,0-20.85,0l-13.03-37.69v37.69s-14.89,0-14.89,0Z"/>
  <path class="cls-3" d="m361.12,48.54h39s0,12.84,0,12.84h-23.92s0,13.22,0,13.22h20.29s0,12.84,0,12.84h-20.29s0,13.22,0,13.22h24.11s0,12.84,0,12.84h-39.18s0-64.96,0-64.96Z"/>
  <path class="cls-1" d="m452.05,48.54v12.84s-14.15,0-14.15,0v52.12s-14.98,0-14.98,0v-52.12s-14.24,0-14.24,0v-12.84s43.37,0,43.37,0Z"/>
  <path class="cls-2" d="m64.98,35.85v77.92s-12.43,12.43-12.43,12.43H12.17S0,113.9,0,113.9V35.85s20.97,0,20.97,0v72.49s23.04,0,23.04,0V35.85s20.97,0,20.97,0Z"/>
  <rect class="cls-1" x="0" y="0" width="64.98" height="16.3"/>
</svg>